<svg version="1.1" xmlns="http://www.w3.org/2000/svg" width="8" height="8">
    <rect width="12.5%" height="12.5%" class="color-claro" x="0" y="0" />
    <rect width="12.5%" height="12.5%" class="color-oscuro" x="12.5%" y="0" />
    <rect width="12.5%" height="12.5%" class="color-claro" x="25%" y="0" />
    <rect width="12.5%" height="12.5%" class="color-oscuro" x="37.5%" y="0" />
    <rect width="12.5%" height="12.5%" class="color-claro" x="50%" y="0" />
    <rect width="12.5%" height="12.5%" class="color-oscuro" x="62.5%" y="0" />
    <rect width="12.5%" height="12.5%" class="color-claro" x="75%" y="0" />
    <rect width="12.5%" height="12.5%" class="color-oscuro" x="87.5%" y="0" />
    <rect width="12.5%" height="12.5%" class="color-oscuro" x="0" y="12.5%" />
    <rect width="12.5%" height="12.5%" class="color-claro" x="12.5%" y="12.5%" />
    <rect width="12.5%" height="12.5%" class="color-oscuro" x="25%" y="12.5%" />
    <rect width="12.5%" height="12.5%" class="color-claro" x="37.5%" y="12.5%" />
    <rect width="12.5%" height="12.5%" class="color-oscuro" x="50%" y="12.5%" />
    <rect width="12.5%" height="12.5%" class="color-claro" x="62.5%" y="12.5%" />
    <rect width="12.5%" height="12.5%" class="color-oscuro" x="75%" y="12.5%" />
    <rect width="12.5%" height="12.5%" class="color-claro" x="87.5%" y="12.5%" />
    <rect width="12.5%" height="12.5%" class="color-claro" x="0" y="25%" />
    <rect width="12.5%" height="12.5%" class="color-oscuro" x="12.5%" y="25%" />
    <rect width="12.5%" height="12.5%" class="color-claro" x="25%" y="25%" />
    <rect width="12.5%" height="12.5%" class="color-oscuro" x="37.5%" y="25%" />
    <rect width="12.5%" height="12.5%" class="color-claro" x="50%" y="25%" />
    <rect width="12.5%" height="12.5%" class="color-oscuro" x="62.5%" y="25%" />
    <rect width="12.5%" height="12.5%" class="color-claro" x="75%" y="25%" />
    <rect width="12.5%" height="12.5%" class="color-oscuro" x="87.5%" y="25%" />
    <rect width="12.5%" height="12.5%" class="color-oscuro" x="0" y="37.5%" />
    <rect width="12.5%" height="12.5%" class="color-claro" x="12.5%" y="37.5%" />
    <rect width="12.5%" height="12.5%" class="color-oscuro" x="25%" y="37.5%" />
    <rect width="12.5%" height="12.5%" class="color-claro" x="37.5%" y="37.5%" />
    <rect width="12.5%" height="12.5%" class="color-oscuro" x="50%" y="37.5%" />
    <rect width="12.5%" height="12.5%" class="color-claro" x="62.5%" y="37.5%" />
    <rect width="12.5%" height="12.5%" class="color-oscuro" x="75%" y="37.5%" />
    <rect width="12.5%" height="12.5%" class="color-claro" x="87.5%" y="37.5%" />
    <rect width="12.5%" height="12.5%" class="color-claro" x="0" y="50%" />
    <rect width="12.5%" height="12.5%" class="color-oscuro" x="12.5%" y="50%" />
    <rect width="12.5%" height="12.5%" class="color-claro" x="25%" y="50%" />
    <rect width="12.5%" height="12.5%" class="color-oscuro" x="37.5%" y="50%" />
    <rect width="12.5%" height="12.5%" class="color-claro" x="50%" y="50%" />
    <rect width="12.5%" height="12.5%" class="color-oscuro" x="62.5%" y="50%" />
    <rect width="12.5%" height="12.5%" class="color-claro" x="75%" y="50%" />
    <rect width="12.5%" height="12.5%" class="color-oscuro" x="87.5%" y="50%" />
    <rect width="12.5%" height="12.5%" class="color-oscuro" x="0" y="62.5%" />
    <rect width="12.5%" height="12.5%" class="color-claro" x="12.5%" y="62.5%" />
    <rect width="12.5%" height="12.5%" class="color-oscuro" x="25%" y="62.5%" />
    <rect width="12.5%" height="12.5%" class="color-claro" x="37.5%" y="62.5%" />
    <rect width="12.5%" height="12.5%" class="color-oscuro" x="50%" y="62.5%" />
    <rect width="12.5%" height="12.5%" class="color-claro" x="62.5%" y="62.5%" />
    <rect width="12.5%" height="12.5%" class="color-oscuro" x="75%" y="62.5%" />
    <rect width="12.5%" height="12.5%" class="color-claro" x="87.5%" y="62.5%" />
    <rect width="12.5%" height="12.5%" class="color-claro" x="0" y="75%" />
    <rect width="12.5%" height="12.5%" class="color-oscuro" x="12.5%" y="75%" />
    <rect width="12.5%" height="12.5%" class="color-claro" x="25%" y="75%" />
    <rect width="12.5%" height="12.5%" class="color-oscuro" x="37.5%" y="75%" />
    <rect width="12.5%" height="12.5%" class="color-claro" x="50%" y="75%" />
    <rect width="12.5%" height="12.5%" class="color-oscuro" x="62.5%" y="75%" />
    <rect width="12.5%" height="12.5%" class="color-claro" x="75%" y="75%" />
    <rect width="12.5%" height="12.5%" class="color-oscuro" x="87.5%" y="75%" />
    <rect width="12.5%" height="12.5%" class="color-oscuro" x="0" y="87.5%" />
    <rect width="12.5%" height="12.5%" class="color-claro" x="12.5%" y="87.5%" />
    <rect width="12.5%" height="12.5%" class="color-oscuro" x="25%" y="87.5%" />
    <rect width="12.5%" height="12.5%" class="color-claro" x="37.5%" y="87.5%" />
    <rect width="12.5%" height="12.5%" class="color-oscuro" x="50%" y="87.5%" />
    <rect width="12.5%" height="12.5%" class="color-claro" x="62.5%" y="87.5%" />
    <rect width="12.5%" height="12.5%" class="color-oscuro" x="75%" y="87.5%" />
    <rect width="12.5%" height="12.5%" class="color-claro" x="87.5%" y="87.5%" />
</svg>